<?xml version="1.0" encoding="utf-8"?>
<!-- Generator: Adobe Illustrator 15.0.0, SVG Export Plug-In  -->
<!DOCTYPE svg PUBLIC "-//W3C//DTD SVG 1.1//EN" "http://www.w3.org/Graphics/SVG/1.1/DTD/svg11.dtd" [
	<!ENTITY ns_flows "http://ns.adobe.com/Flows/1.0/">
]>
<svg version="1.1"
	 xmlns="http://www.w3.org/2000/svg" xmlns:xlink="http://www.w3.org/1999/xlink" xmlns:a="http://ns.adobe.com/AdobeSVGViewerExtensions/3.0/"
	 x="0px" y="0px" width="70px" height="70px" viewBox="-11.241 -10.241 70 70" enable-background="new -11.241 -10.241 70 70"
	 xml:space="preserve">
<defs>
</defs>
<polygon fill="#FFFFFF" points="26.455,35.615 19.207,28.413 13.407,28.341 23.607,38.478 "/>
<rect x="20.669" y="31.411" transform="matrix(0.7047 -0.7095 0.7095 0.7047 -16.1068 28.1584)" fill="#FFFFFF" width="10.216" height="4.038"/>
<polygon fill="#FFFFFF" points="20.524,11.509 27.771,18.711 33.571,18.781 23.369,8.645 "/>
<rect x="15.855" y="11.409" transform="matrix(-0.7049 0.7093 -0.7093 -0.7049 45.2656 8.0239)" fill="#FFFFFF" width="10.218" height="4.039"/>
<rect x="21.28" y="12.749" transform="matrix(0.7049 -0.7093 0.7093 0.7049 -9.8021 23.4637)" fill="#FFFFFF" width="4.038" height="21.528"/>
<rect x="11.268" y="17.464" transform="matrix(0.7069 -0.7073 0.7073 0.7069 -20.3217 19.1375)" fill="#FFFFFF" width="3.325" height="33.248"/>
<rect x="11.268" y="-3.693" transform="matrix(-0.707 -0.7073 0.7073 -0.707 12.9266 31.2168)" fill="#FFFFFF" width="3.324" height="33.247"/>
<rect x="32.426" y="17.465" transform="matrix(-0.7072 -0.707 0.707 -0.7072 34.0936 82.2972)" fill="#FFFFFF" width="3.325" height="33.247"/>
<rect x="32.426" y="-3.694" transform="matrix(0.7071 -0.7071 0.7071 0.7071 0.8413 27.8915)" fill="#FFFFFF" width="3.326" height="33.247"/>
</svg>
